<mxfile host="65bd71144e">
    <diagram id="30EHxh-2TjLDSj1UjU53" name="Flowchart">
        <mxGraphModel dx="2742" dy="660" grid="1" gridSize="10" guides="1" tooltips="1" connect="1" arrows="1" fold="1" page="1" pageScale="1" pageWidth="850" pageHeight="1100" math="0" shadow="0">
            <root>
                <mxCell id="0"/>
                <mxCell id="1" parent="0"/>
                <mxCell id="102" style="edgeStyle=none;html=1;exitX=0.5;exitY=1;exitDx=0;exitDy=0;entryX=0.5;entryY=0;entryDx=0;entryDy=0;" edge="1" parent="1" source="4" target="97">
                    <mxGeometry relative="1" as="geometry"/>
                </mxCell>
                <mxCell id="4" value="Preprocessor" style="rounded=1;whiteSpace=wrap;html=1;" parent="1" vertex="1">
                    <mxGeometry x="-65" y="170" width="120" height="60" as="geometry"/>
                </mxCell>
                <mxCell id="47" value="setup();" style="swimlane;whiteSpace=wrap;html=1;startSize=23;" vertex="1" parent="1">
                    <mxGeometry x="230" y="10" width="230" height="530" as="geometry"/>
                </mxCell>
                <mxCell id="130" style="edgeStyle=none;html=1;exitX=0.5;exitY=1;exitDx=0;exitDy=0;entryX=0.5;entryY=0;entryDx=0;entryDy=0;" edge="1" parent="47" source="62" target="115">
                    <mxGeometry relative="1" as="geometry"/>
                </mxCell>
                <mxCell id="62" value="Start" style="ellipse;whiteSpace=wrap;html=1;" vertex="1" parent="47">
                    <mxGeometry x="80" y="50" width="80" height="40" as="geometry"/>
                </mxCell>
                <mxCell id="115" value="Initialized Variables" style="rounded=1;whiteSpace=wrap;html=1;" vertex="1" parent="47">
                    <mxGeometry x="60" y="110" width="120" height="60" as="geometry"/>
                </mxCell>
                <mxCell id="117" value="Display on LCD" style="shape=display;whiteSpace=wrap;html=1;" vertex="1" parent="47">
                    <mxGeometry x="60" y="190" width="110" height="40" as="geometry"/>
                </mxCell>
                <mxCell id="127" style="edgeStyle=none;html=1;exitX=0;exitY=0;exitDx=58.75;exitDy=40;exitPerimeter=0;entryX=0.5;entryY=0;entryDx=0;entryDy=0;" edge="1" parent="47" source="118" target="119">
                    <mxGeometry relative="1" as="geometry"/>
                </mxCell>
                <mxCell id="118" value="Clear LCD" style="shape=display;whiteSpace=wrap;html=1;" vertex="1" parent="47">
                    <mxGeometry x="60" y="250" width="110" height="40" as="geometry"/>
                </mxCell>
                <mxCell id="128" style="edgeStyle=none;html=1;exitX=0.5;exitY=1;exitDx=0;exitDy=0;entryX=0.5;entryY=0;entryDx=0;entryDy=0;" edge="1" parent="47" source="119" target="120">
                    <mxGeometry relative="1" as="geometry"/>
                </mxCell>
                <mxCell id="119" value="setupWiFi();" style="rounded=1;whiteSpace=wrap;html=1;" vertex="1" parent="47">
                    <mxGeometry x="60" y="320" width="120" height="60" as="geometry"/>
                </mxCell>
                <mxCell id="129" style="edgeStyle=none;html=1;exitX=0.5;exitY=1;exitDx=0;exitDy=0;entryX=0.5;entryY=0;entryDx=0;entryDy=0;" edge="1" parent="47" source="120" target="121">
                    <mxGeometry relative="1" as="geometry"/>
                </mxCell>
                <mxCell id="120" value="set Server Broker&amp;nbsp;" style="rounded=1;whiteSpace=wrap;html=1;" vertex="1" parent="47">
                    <mxGeometry x="60" y="400" width="120" height="60" as="geometry"/>
                </mxCell>
                <mxCell id="121" value="End" style="ellipse;whiteSpace=wrap;html=1;" vertex="1" parent="47">
                    <mxGeometry x="80" y="480" width="80" height="40" as="geometry"/>
                </mxCell>
                <mxCell id="125" style="edgeStyle=none;html=1;exitX=0.5;exitY=1;exitDx=0;exitDy=0;entryX=0;entryY=0;entryDx=58.75;entryDy=0;entryPerimeter=0;" edge="1" parent="47" source="115" target="117">
                    <mxGeometry relative="1" as="geometry"/>
                </mxCell>
                <mxCell id="126" style="edgeStyle=none;html=1;exitX=0;exitY=0;exitDx=58.75;exitDy=40;exitPerimeter=0;entryX=0;entryY=0;entryDx=58.75;entryDy=0;entryPerimeter=0;" edge="1" parent="47" source="117" target="118">
                    <mxGeometry relative="1" as="geometry"/>
                </mxCell>
                <mxCell id="103" style="edgeStyle=none;html=1;exitX=0.5;exitY=1;exitDx=0;exitDy=0;entryX=0.5;entryY=0;entryDx=0;entryDy=0;" edge="1" parent="1" source="97" target="98">
                    <mxGeometry relative="1" as="geometry"/>
                </mxCell>
                <mxCell id="97" value="setup();" style="rounded=1;whiteSpace=wrap;html=1;" vertex="1" parent="1">
                    <mxGeometry x="-65" y="280" width="120" height="60" as="geometry"/>
                </mxCell>
                <mxCell id="98" value="loop();" style="rounded=1;whiteSpace=wrap;html=1;" vertex="1" parent="1">
                    <mxGeometry x="-65" y="380" width="120" height="60" as="geometry"/>
                </mxCell>
                <mxCell id="101" style="edgeStyle=none;html=1;exitX=0.5;exitY=1;exitDx=0;exitDy=0;entryX=0.5;entryY=0;entryDx=0;entryDy=0;" edge="1" parent="1" source="100" target="4">
                    <mxGeometry relative="1" as="geometry"/>
                </mxCell>
                <mxCell id="100" value="Start" style="ellipse;whiteSpace=wrap;html=1;" vertex="1" parent="1">
                    <mxGeometry x="-49.5" y="100" width="89" height="40" as="geometry"/>
                </mxCell>
                <mxCell id="131" value="setupWiFi();" style="swimlane;whiteSpace=wrap;html=1;startSize=23;" vertex="1" parent="1">
                    <mxGeometry x="480" y="10" width="480" height="630" as="geometry"/>
                </mxCell>
                <mxCell id="155" style="edgeStyle=none;html=1;exitX=0.5;exitY=1;exitDx=0;exitDy=0;entryX=0.5;entryY=0;entryDx=0;entryDy=0;" edge="1" parent="131" source="133" target="134">
                    <mxGeometry relative="1" as="geometry"/>
                </mxCell>
                <mxCell id="133" value="Start" style="ellipse;whiteSpace=wrap;html=1;" vertex="1" parent="131">
                    <mxGeometry x="192.5" y="40" width="80" height="40" as="geometry"/>
                </mxCell>
                <mxCell id="134" value="Initialized WiFi" style="rounded=1;whiteSpace=wrap;html=1;" vertex="1" parent="131">
                    <mxGeometry x="172.5" y="100" width="120" height="60" as="geometry"/>
                </mxCell>
                <mxCell id="135" value="Display on LCD" style="shape=display;whiteSpace=wrap;html=1;" vertex="1" parent="131">
                    <mxGeometry x="177.5" y="180" width="110" height="40" as="geometry"/>
                </mxCell>
                <mxCell id="149" value="" style="edgeStyle=none;html=1;exitX=0;exitY=0.5;exitDx=0;exitDy=0;entryX=0.5;entryY=0;entryDx=0;entryDy=0;" edge="1" parent="131" source="145">
                    <mxGeometry relative="1" as="geometry">
                        <mxPoint x="160" y="540" as="targetPoint"/>
                        <Array as="points">
                            <mxPoint x="160" y="475"/>
                        </Array>
                    </mxGeometry>
                </mxCell>
                <mxCell id="153" style="edgeStyle=none;html=1;exitX=1;exitY=0.5;exitDx=0;exitDy=0;entryX=0.5;entryY=0;entryDx=0;entryDy=0;" edge="1" parent="131" source="145">
                    <mxGeometry relative="1" as="geometry">
                        <mxPoint x="330" y="540" as="targetPoint"/>
                        <Array as="points">
                            <mxPoint x="330" y="475"/>
                        </Array>
                    </mxGeometry>
                </mxCell>
                <mxCell id="145" value="WiFi has Connected ?" style="rhombus;whiteSpace=wrap;html=1;" vertex="1" parent="131">
                    <mxGeometry x="187.5" y="430" width="105" height="90" as="geometry"/>
                </mxCell>
                <mxCell id="191" style="edgeStyle=none;html=1;exitX=0;exitY=0.5;exitDx=0;exitDy=0;" edge="1" parent="131" source="148">
                    <mxGeometry relative="1" as="geometry">
                        <mxPoint x="240" y="390" as="targetPoint"/>
                        <Array as="points">
                            <mxPoint x="40" y="570"/>
                            <mxPoint x="40" y="390"/>
                        </Array>
                    </mxGeometry>
                </mxCell>
                <mxCell id="148" value="LoadingAnimationWiFi();" style="rounded=1;whiteSpace=wrap;html=1;" vertex="1" parent="131">
                    <mxGeometry x="85" y="540" width="150" height="60" as="geometry"/>
                </mxCell>
                <mxCell id="156" style="edgeStyle=none;html=1;exitX=0.5;exitY=1;exitDx=0;exitDy=0;entryX=0.498;entryY=-0.02;entryDx=0;entryDy=0;entryPerimeter=0;" edge="1" parent="131" source="134" target="135">
                    <mxGeometry relative="1" as="geometry"/>
                </mxCell>
                <mxCell id="157" style="edgeStyle=none;html=1;exitX=0;exitY=0;exitDx=58.75;exitDy=40;exitPerimeter=0;entryX=0;entryY=0;entryDx=58.75;entryDy=0;entryPerimeter=0;" edge="1" parent="131" source="135">
                    <mxGeometry relative="1" as="geometry">
                        <mxPoint x="236.25" y="245" as="targetPoint"/>
                    </mxGeometry>
                </mxCell>
                <mxCell id="159" value="End" style="ellipse;whiteSpace=wrap;html=1;" vertex="1" parent="131">
                    <mxGeometry x="290" y="540" width="80" height="40" as="geometry"/>
                </mxCell>
                <mxCell id="160" value="No" style="text;html=1;align=center;verticalAlign=middle;resizable=0;points=[];autosize=1;strokeColor=none;fillColor=none;" vertex="1" parent="131">
                    <mxGeometry x="145" y="450" width="40" height="30" as="geometry"/>
                </mxCell>
                <mxCell id="161" value="Yes" style="text;html=1;align=center;verticalAlign=middle;resizable=0;points=[];autosize=1;strokeColor=none;fillColor=none;" vertex="1" parent="131">
                    <mxGeometry x="292.5" y="450" width="40" height="30" as="geometry"/>
                </mxCell>
                <mxCell id="188" style="edgeStyle=none;html=1;exitX=0;exitY=0;exitDx=71.25;exitDy=40;exitPerimeter=0;entryX=0.5;entryY=0;entryDx=0;entryDy=0;" edge="1" parent="131" source="183" target="187">
                    <mxGeometry relative="1" as="geometry"/>
                </mxCell>
                <mxCell id="183" value="Display on Serial Monitor" style="shape=display;whiteSpace=wrap;html=1;" vertex="1" parent="131">
                    <mxGeometry x="167.5" y="245" width="130" height="40" as="geometry"/>
                </mxCell>
                <mxCell id="189" style="edgeStyle=none;html=1;exitX=0.5;exitY=1;exitDx=0;exitDy=0;entryX=0.5;entryY=0;entryDx=0;entryDy=0;" edge="1" parent="131" source="187" target="145">
                    <mxGeometry relative="1" as="geometry"/>
                </mxCell>
                <mxCell id="187" value="lcdAnimationPos = 6;" style="rounded=1;whiteSpace=wrap;html=1;" vertex="1" parent="131">
                    <mxGeometry x="180" y="310" width="120" height="60" as="geometry"/>
                </mxCell>
                <mxCell id="192" value="Reconnecting Wi-Fi" style="text;html=1;align=center;verticalAlign=middle;resizable=0;points=[];autosize=1;strokeColor=none;fillColor=none;" vertex="1" parent="131">
                    <mxGeometry x="62.5" y="390" width="130" height="30" as="geometry"/>
                </mxCell>
                <mxCell id="162" value="LoadingAnimationWiFi();" style="swimlane;whiteSpace=wrap;html=1;startSize=23;" vertex="1" parent="1">
                    <mxGeometry x="970" y="10" width="480" height="800" as="geometry"/>
                </mxCell>
                <mxCell id="181" value="" style="edgeStyle=none;html=1;" edge="1" parent="162" source="179">
                    <mxGeometry relative="1" as="geometry">
                        <mxPoint x="240" y="100" as="targetPoint"/>
                    </mxGeometry>
                </mxCell>
                <mxCell id="179" value="Start" style="ellipse;whiteSpace=wrap;html=1;" vertex="1" parent="162">
                    <mxGeometry x="200" y="40" width="80" height="40" as="geometry"/>
                </mxCell>
                <mxCell id="185" value="" style="edgeStyle=none;html=1;" edge="1" parent="162" source="182" target="184">
                    <mxGeometry relative="1" as="geometry"/>
                </mxCell>
                <mxCell id="182" value="Display on Serial Monitor" style="shape=display;whiteSpace=wrap;html=1;" vertex="1" parent="162">
                    <mxGeometry x="175" y="100" width="130" height="40" as="geometry"/>
                </mxCell>
                <mxCell id="195" style="edgeStyle=none;html=1;exitX=0.5;exitY=1;exitDx=0;exitDy=0;entryX=0.5;entryY=0;entryDx=0;entryDy=0;" edge="1" parent="162" source="184" target="193">
                    <mxGeometry relative="1" as="geometry"/>
                </mxCell>
                <mxCell id="184" value="lcdAnimationPos++" style="rounded=1;whiteSpace=wrap;html=1;" vertex="1" parent="162">
                    <mxGeometry x="180" y="160" width="120" height="60" as="geometry"/>
                </mxCell>
                <mxCell id="194" style="edgeStyle=none;html=1;exitX=0;exitY=0.5;exitDx=0;exitDy=0;" edge="1" parent="162" source="193">
                    <mxGeometry relative="1" as="geometry">
                        <mxPoint x="240" y="90" as="targetPoint"/>
                        <Array as="points">
                            <mxPoint x="100" y="305"/>
                            <mxPoint x="100" y="90"/>
                        </Array>
                    </mxGeometry>
                </mxCell>
                <mxCell id="216" style="edgeStyle=none;html=1;exitX=0.5;exitY=1;exitDx=0;exitDy=0;entryX=0.5;entryY=0;entryDx=0;entryDy=0;" edge="1" parent="162" source="193" target="213">
                    <mxGeometry relative="1" as="geometry"/>
                </mxCell>
                <mxCell id="193" value="lcdAnimationPos &amp;gt; 15 ?" style="rhombus;whiteSpace=wrap;html=1;" vertex="1" parent="162">
                    <mxGeometry x="150" y="250" width="180" height="110" as="geometry"/>
                </mxCell>
                <mxCell id="197" value="int i = 6;" style="rounded=1;whiteSpace=wrap;html=1;" vertex="1" parent="162">
                    <mxGeometry x="210" y="460" width="60" height="30" as="geometry"/>
                </mxCell>
                <mxCell id="209" style="edgeStyle=none;html=1;exitX=0;exitY=0;exitDx=86.875;exitDy=40;exitPerimeter=0;entryX=0.5;entryY=0;entryDx=0;entryDy=0;" edge="1" parent="162" source="199" target="200">
                    <mxGeometry relative="1" as="geometry"/>
                </mxCell>
                <mxCell id="199" value="Clear LCD on position = i" style="shape=display;whiteSpace=wrap;html=1;" vertex="1" parent="162">
                    <mxGeometry x="150" y="510" width="155" height="40" as="geometry"/>
                </mxCell>
                <mxCell id="210" style="edgeStyle=none;html=1;exitX=0.5;exitY=1;exitDx=0;exitDy=0;entryX=0.5;entryY=0;entryDx=0;entryDy=0;" edge="1" parent="162" source="200" target="201">
                    <mxGeometry relative="1" as="geometry"/>
                </mxCell>
                <mxCell id="200" value="i++;" style="rounded=1;whiteSpace=wrap;html=1;" vertex="1" parent="162">
                    <mxGeometry x="210" y="570" width="60" height="30" as="geometry"/>
                </mxCell>
                <mxCell id="218" style="edgeStyle=none;html=1;exitX=0;exitY=0.5;exitDx=0;exitDy=0;" edge="1" parent="162" source="201">
                    <mxGeometry relative="1" as="geometry">
                        <mxPoint x="230" y="500" as="targetPoint"/>
                        <Array as="points">
                            <mxPoint x="130" y="665"/>
                            <mxPoint x="130" y="500"/>
                        </Array>
                    </mxGeometry>
                </mxCell>
                <mxCell id="226" style="edgeStyle=none;html=1;exitX=0.5;exitY=1;exitDx=0;exitDy=0;entryX=0.5;entryY=0;entryDx=0;entryDy=0;" edge="1" parent="162" source="201" target="225">
                    <mxGeometry relative="1" as="geometry"/>
                </mxCell>
                <mxCell id="201" value="Is i &amp;lt;= 15;" style="rhombus;whiteSpace=wrap;html=1;" vertex="1" parent="162">
                    <mxGeometry x="190" y="620" width="100" height="90" as="geometry"/>
                </mxCell>
                <mxCell id="208" style="edgeStyle=none;html=1;exitX=0;exitY=0;exitDx=86.875;exitDy=0;entryX=0;entryY=0;entryDx=86.875;entryDy=0;entryPerimeter=0;exitPerimeter=0;" edge="1" parent="162" source="199" target="199">
                    <mxGeometry relative="1" as="geometry"/>
                </mxCell>
                <mxCell id="212" value="No" style="text;html=1;align=center;verticalAlign=middle;resizable=0;points=[];autosize=1;strokeColor=none;fillColor=none;" vertex="1" parent="162">
                    <mxGeometry x="100" y="280" width="40" height="30" as="geometry"/>
                </mxCell>
                <mxCell id="215" style="edgeStyle=none;html=1;exitX=0.5;exitY=1;exitDx=0;exitDy=0;entryX=0.5;entryY=0;entryDx=0;entryDy=0;" edge="1" parent="162" source="213" target="197">
                    <mxGeometry relative="1" as="geometry"/>
                </mxCell>
                <mxCell id="213" value="lcdAnimationPos = 6;" style="rounded=1;whiteSpace=wrap;html=1;" vertex="1" parent="162">
                    <mxGeometry x="180" y="390" width="120" height="60" as="geometry"/>
                </mxCell>
                <mxCell id="214" style="edgeStyle=none;html=1;exitX=0.5;exitY=1;exitDx=0;exitDy=0;entryX=0;entryY=0;entryDx=86.875;entryDy=0;entryPerimeter=0;" edge="1" parent="162" source="197" target="199">
                    <mxGeometry relative="1" as="geometry"/>
                </mxCell>
                <mxCell id="217" value="Yes" style="text;html=1;align=center;verticalAlign=middle;resizable=0;points=[];autosize=1;strokeColor=none;fillColor=none;" vertex="1" parent="162">
                    <mxGeometry x="240" y="360" width="40" height="30" as="geometry"/>
                </mxCell>
                <mxCell id="220" value="Yes" style="text;html=1;align=center;verticalAlign=middle;resizable=0;points=[];autosize=1;strokeColor=none;fillColor=none;" vertex="1" parent="162">
                    <mxGeometry x="135" y="640" width="40" height="30" as="geometry"/>
                </mxCell>
                <mxCell id="225" value="End" style="ellipse;whiteSpace=wrap;html=1;" vertex="1" parent="162">
                    <mxGeometry x="200" y="750" width="80" height="40" as="geometry"/>
                </mxCell>
                <mxCell id="228" value="loop();" style="swimlane;whiteSpace=wrap;html=1;startSize=23;" vertex="1" parent="1">
                    <mxGeometry x="-170" y="560" width="630" height="1090" as="geometry"/>
                </mxCell>
                <mxCell id="244" value="" style="edgeStyle=none;html=1;" edge="1" parent="228" source="230" target="243">
                    <mxGeometry relative="1" as="geometry"/>
                </mxCell>
                <mxCell id="230" value="Start" style="ellipse;whiteSpace=wrap;html=1;" vertex="1" parent="228">
                    <mxGeometry x="270" y="50" width="80" height="40" as="geometry"/>
                </mxCell>
                <mxCell id="246" value="" style="edgeStyle=none;html=1;" edge="1" parent="228" source="243" target="245">
                    <mxGeometry relative="1" as="geometry"/>
                </mxCell>
                <mxCell id="243" value="Millis();" style="rounded=1;whiteSpace=wrap;html=1;" vertex="1" parent="228">
                    <mxGeometry x="250" y="110" width="120" height="60" as="geometry"/>
                </mxCell>
                <mxCell id="248" value="" style="edgeStyle=none;html=1;" edge="1" parent="228" source="245" target="247">
                    <mxGeometry relative="1" as="geometry"/>
                </mxCell>
                <mxCell id="245" value="reconnectMQTT();" style="rounded=1;whiteSpace=wrap;html=1;" vertex="1" parent="228">
                    <mxGeometry x="250" y="190" width="120" height="60" as="geometry"/>
                </mxCell>
                <mxCell id="272" style="edgeStyle=none;html=1;exitX=0.5;exitY=1;exitDx=0;exitDy=0;entryX=0.5;entryY=0;entryDx=0;entryDy=0;" edge="1" parent="228" source="247" target="249">
                    <mxGeometry relative="1" as="geometry"/>
                </mxCell>
                <mxCell id="247" value="handleConnectWiFi();" style="rounded=1;whiteSpace=wrap;html=1;" vertex="1" parent="228">
                    <mxGeometry x="250" y="270" width="120" height="60" as="geometry"/>
                </mxCell>
                <mxCell id="255" style="edgeStyle=none;html=1;exitX=0;exitY=0.5;exitDx=0;exitDy=0;entryX=0.5;entryY=0;entryDx=0;entryDy=0;" edge="1" parent="228" source="249" target="253">
                    <mxGeometry relative="1" as="geometry">
                        <Array as="points">
                            <mxPoint x="180" y="420"/>
                        </Array>
                    </mxGeometry>
                </mxCell>
                <mxCell id="258" style="edgeStyle=none;html=1;exitX=1;exitY=0.5;exitDx=0;exitDy=0;entryX=0.5;entryY=0;entryDx=0;entryDy=0;" edge="1" parent="228" source="249" target="257">
                    <mxGeometry relative="1" as="geometry">
                        <Array as="points">
                            <mxPoint x="495" y="420"/>
                        </Array>
                    </mxGeometry>
                </mxCell>
                <mxCell id="249" value="Has it been past 10 second yet ?" style="rhombus;whiteSpace=wrap;html=1;" vertex="1" parent="228">
                    <mxGeometry x="240" y="360" width="140" height="120" as="geometry"/>
                </mxCell>
                <mxCell id="260" style="edgeStyle=none;html=1;exitX=0;exitY=0.5;exitDx=0;exitDy=0;entryX=0;entryY=0.5;entryDx=0;entryDy=0;" edge="1" parent="228" source="253" target="230">
                    <mxGeometry relative="1" as="geometry">
                        <Array as="points">
                            <mxPoint x="110" y="70"/>
                        </Array>
                    </mxGeometry>
                </mxCell>
                <mxCell id="265" style="edgeStyle=none;html=1;exitX=0.5;exitY=1;exitDx=0;exitDy=0;" edge="1" parent="228" source="253">
                    <mxGeometry relative="1" as="geometry">
                        <mxPoint x="179.71428571428578" y="750" as="targetPoint"/>
                    </mxGeometry>
                </mxCell>
                <mxCell id="253" value="Has it been past&amp;nbsp;&lt;div&gt;3 second yet ?&lt;/div&gt;" style="rhombus;whiteSpace=wrap;html=1;" vertex="1" parent="228">
                    <mxGeometry x="110" y="580" width="140" height="120" as="geometry"/>
                </mxCell>
                <mxCell id="264" style="edgeStyle=none;html=1;exitX=0.5;exitY=1;exitDx=0;exitDy=0;entryX=0.5;entryY=0;entryDx=0;entryDy=0;" edge="1" parent="228" source="257" target="262">
                    <mxGeometry relative="1" as="geometry"/>
                </mxCell>
                <mxCell id="257" value="SendDataFromPZEM();" style="rounded=1;whiteSpace=wrap;html=1;" vertex="1" parent="228">
                    <mxGeometry x="420" y="450" width="150" height="60" as="geometry"/>
                </mxCell>
                <mxCell id="263" style="edgeStyle=none;html=1;exitX=0.5;exitY=1;exitDx=0;exitDy=0;entryX=1;entryY=0.5;entryDx=0;entryDy=0;" edge="1" parent="228" source="262" target="253">
                    <mxGeometry relative="1" as="geometry">
                        <Array as="points">
                            <mxPoint x="495" y="640"/>
                        </Array>
                    </mxGeometry>
                </mxCell>
                <mxCell id="262" value="SendDataMillis = currentMillis;" style="rounded=1;whiteSpace=wrap;html=1;" vertex="1" parent="228">
                    <mxGeometry x="420" y="540" width="150" height="60" as="geometry"/>
                </mxCell>
                <mxCell id="266" style="edgeStyle=none;html=1;exitX=0.5;exitY=1;exitDx=0;exitDy=0;entryX=0.5;entryY=0;entryDx=0;entryDy=0;" edge="1" parent="228" source="267" target="268">
                    <mxGeometry relative="1" as="geometry"/>
                </mxCell>
                <mxCell id="267" value="SerialDataPZEM();" style="rounded=1;whiteSpace=wrap;html=1;" vertex="1" parent="228">
                    <mxGeometry x="105" y="750" width="150" height="60" as="geometry"/>
                </mxCell>
                <mxCell id="270" style="edgeStyle=none;html=1;exitX=0.5;exitY=1;exitDx=0;exitDy=0;entryX=0.5;entryY=0;entryDx=0;entryDy=0;" edge="1" parent="228" source="268" target="269">
                    <mxGeometry relative="1" as="geometry"/>
                </mxCell>
                <mxCell id="268" value="ShowDataLCD();" style="rounded=1;whiteSpace=wrap;html=1;" vertex="1" parent="228">
                    <mxGeometry x="105" y="840" width="150" height="60" as="geometry"/>
                </mxCell>
                <mxCell id="271" style="edgeStyle=none;html=1;exitX=0.5;exitY=1;exitDx=0;exitDy=0;entryX=0;entryY=0.5;entryDx=0;entryDy=0;" edge="1" parent="228" source="269" target="230">
                    <mxGeometry relative="1" as="geometry">
                        <Array as="points">
                            <mxPoint x="180" y="1040"/>
                            <mxPoint x="60" y="1040"/>
                            <mxPoint x="50" y="70"/>
                        </Array>
                    </mxGeometry>
                </mxCell>
                <mxCell id="269" value="SendDataMillis = currentMillis;" style="rounded=1;whiteSpace=wrap;html=1;" vertex="1" parent="228">
                    <mxGeometry x="105" y="930" width="150" height="60" as="geometry"/>
                </mxCell>
                <mxCell id="273" value="Yes" style="text;html=1;align=center;verticalAlign=middle;resizable=0;points=[];autosize=1;strokeColor=none;fillColor=none;" vertex="1" parent="228">
                    <mxGeometry x="390" y="390" width="40" height="30" as="geometry"/>
                </mxCell>
                <mxCell id="274" value="No" style="text;html=1;align=center;verticalAlign=middle;resizable=0;points=[];autosize=1;strokeColor=none;fillColor=none;" vertex="1" parent="228">
                    <mxGeometry x="190" y="390" width="40" height="30" as="geometry"/>
                </mxCell>
                <mxCell id="275" value="No" style="text;html=1;align=center;verticalAlign=middle;resizable=0;points=[];autosize=1;strokeColor=none;fillColor=none;" vertex="1" parent="228">
                    <mxGeometry x="70" y="540" width="40" height="30" as="geometry"/>
                </mxCell>
                <mxCell id="276" value="Yes" style="text;html=1;align=center;verticalAlign=middle;resizable=0;points=[];autosize=1;strokeColor=none;fillColor=none;" vertex="1" parent="228">
                    <mxGeometry x="180" y="710" width="40" height="30" as="geometry"/>
                </mxCell>
                <mxCell id="242" value="&lt;font style=&quot;font-size: 36px;&quot;&gt;Main Program&lt;/font&gt;" style="text;html=1;align=center;verticalAlign=middle;whiteSpace=wrap;rounded=0;fontStyle=1" vertex="1" parent="1">
                    <mxGeometry x="-130" y="40" width="250" height="30" as="geometry"/>
                </mxCell>
                <mxCell id="277" value="SendDataFromPZEM();" style="swimlane;whiteSpace=wrap;html=1;startSize=23;" vertex="1" parent="1">
                    <mxGeometry x="480" y="660" width="480" height="340" as="geometry"/>
                </mxCell>
                <mxCell id="278" style="edgeStyle=none;html=1;exitX=0.5;exitY=1;exitDx=0;exitDy=0;entryX=0.5;entryY=0;entryDx=0;entryDy=0;" edge="1" parent="277" source="279">
                    <mxGeometry relative="1" as="geometry">
                        <mxPoint x="232.5" y="100" as="targetPoint"/>
                    </mxGeometry>
                </mxCell>
                <mxCell id="279" value="Start" style="ellipse;whiteSpace=wrap;html=1;" vertex="1" parent="277">
                    <mxGeometry x="192.5" y="40" width="80" height="40" as="geometry"/>
                </mxCell>
                <mxCell id="300" style="edgeStyle=none;html=1;exitX=0.5;exitY=1;exitDx=0;exitDy=0;entryX=0.5;entryY=0;entryDx=0;entryDy=0;" edge="1" parent="277" source="298" target="299">
                    <mxGeometry relative="1" as="geometry"/>
                </mxCell>
                <mxCell id="298" value="Read Data from PZEM" style="shape=parallelogram;perimeter=parallelogramPerimeter;whiteSpace=wrap;html=1;fixedSize=1;" vertex="1" parent="277">
                    <mxGeometry x="170" y="100" width="120" height="60" as="geometry"/>
                </mxCell>
                <mxCell id="302" style="edgeStyle=none;html=1;exitX=0.5;exitY=1;exitDx=0;exitDy=0;entryX=0.5;entryY=0;entryDx=0;entryDy=0;" edge="1" parent="277" source="299" target="301">
                    <mxGeometry relative="1" as="geometry"/>
                </mxCell>
                <mxCell id="299" value="Send Data to&amp;nbsp;&lt;div&gt;Node Red&lt;/div&gt;" style="rounded=1;whiteSpace=wrap;html=1;" vertex="1" parent="277">
                    <mxGeometry x="170" y="190" width="120" height="60" as="geometry"/>
                </mxCell>
                <mxCell id="301" value="End" style="ellipse;whiteSpace=wrap;html=1;" vertex="1" parent="277">
                    <mxGeometry x="190" y="280" width="80" height="40" as="geometry"/>
                </mxCell>
                <mxCell id="303" value="SerialDataPZEM();" style="swimlane;whiteSpace=wrap;html=1;startSize=23;" vertex="1" parent="1">
                    <mxGeometry x="480" y="1020" width="480" height="520" as="geometry"/>
                </mxCell>
                <mxCell id="304" style="edgeStyle=none;html=1;exitX=0.5;exitY=1;exitDx=0;exitDy=0;entryX=0.5;entryY=0;entryDx=0;entryDy=0;" edge="1" parent="303" source="305">
                    <mxGeometry relative="1" as="geometry">
                        <mxPoint x="232.5" y="100" as="targetPoint"/>
                    </mxGeometry>
                </mxCell>
                <mxCell id="305" value="Start" style="ellipse;whiteSpace=wrap;html=1;" vertex="1" parent="303">
                    <mxGeometry x="192.5" y="40" width="80" height="40" as="geometry"/>
                </mxCell>
                <mxCell id="317" style="edgeStyle=none;html=1;exitX=0.5;exitY=1;exitDx=0;exitDy=0;" edge="1" parent="303" source="311" target="316">
                    <mxGeometry relative="1" as="geometry"/>
                </mxCell>
                <mxCell id="311" value="Is Voltage or&amp;nbsp;&lt;div&gt;Curent or&amp;nbsp;&lt;/div&gt;&lt;div&gt;Power or&amp;nbsp;&lt;/div&gt;&lt;div&gt;Energy or&amp;nbsp;&lt;/div&gt;&lt;div&gt;Frequency or&amp;nbsp;&lt;/div&gt;&lt;div&gt;Power Factor&amp;nbsp;&lt;/div&gt;&lt;div&gt;is nan ?&lt;/div&gt;" style="rhombus;whiteSpace=wrap;html=1;" vertex="1" parent="303">
                    <mxGeometry x="138.75" y="100" width="187.5" height="170" as="geometry"/>
                </mxCell>
                <mxCell id="334" style="edgeStyle=none;html=1;exitX=0;exitY=0;exitDx=85;exitDy=60;exitPerimeter=0;" edge="1" parent="303" source="313">
                    <mxGeometry relative="1" as="geometry">
                        <mxPoint x="230" y="90" as="targetPoint"/>
                        <Array as="points">
                            <mxPoint x="105" y="380"/>
                            <mxPoint x="10" y="380"/>
                            <mxPoint x="10" y="90"/>
                        </Array>
                    </mxGeometry>
                </mxCell>
                <mxCell id="313" value="Display Error reading&amp;nbsp;&lt;div&gt;... on Serial Monitor&lt;/div&gt;" style="shape=display;whiteSpace=wrap;html=1;" vertex="1" parent="303">
                    <mxGeometry x="20" y="270" width="160" height="60" as="geometry"/>
                </mxCell>
                <mxCell id="314" style="edgeStyle=none;html=1;exitX=0;exitY=0.5;exitDx=0;exitDy=0;entryX=0.62;entryY=-0.011;entryDx=0;entryDy=0;entryPerimeter=0;" edge="1" parent="303" source="311" target="313">
                    <mxGeometry relative="1" as="geometry">
                        <Array as="points">
                            <mxPoint x="119" y="185"/>
                        </Array>
                    </mxGeometry>
                </mxCell>
                <mxCell id="336" style="edgeStyle=none;html=1;exitX=0;exitY=0;exitDx=77.1875;exitDy=60;exitPerimeter=0;entryX=0.5;entryY=0;entryDx=0;entryDy=0;" edge="1" parent="303" source="316" target="318">
                    <mxGeometry relative="1" as="geometry"/>
                </mxCell>
                <mxCell id="316" value="Display Voltage etc. on Serial Monitor" style="shape=display;whiteSpace=wrap;html=1;" vertex="1" parent="303">
                    <mxGeometry x="158.75" y="350" width="147.5" height="60" as="geometry"/>
                </mxCell>
                <mxCell id="318" value="End" style="ellipse;whiteSpace=wrap;html=1;" vertex="1" parent="303">
                    <mxGeometry x="192.5" y="450" width="80" height="40" as="geometry"/>
                </mxCell>
                <mxCell id="320" value="Yes" style="text;html=1;align=center;verticalAlign=middle;resizable=0;points=[];autosize=1;strokeColor=none;fillColor=none;" vertex="1" parent="303">
                    <mxGeometry x="80" y="220" width="40" height="30" as="geometry"/>
                </mxCell>
                <mxCell id="333" value="No" style="text;html=1;align=center;verticalAlign=middle;resizable=0;points=[];autosize=1;strokeColor=none;fillColor=none;" vertex="1" parent="303">
                    <mxGeometry x="192.5" y="280" width="40" height="30" as="geometry"/>
                </mxCell>
                <mxCell id="337" value="ShowDataLCD();" style="swimlane;whiteSpace=wrap;html=1;startSize=23;" vertex="1" parent="1">
                    <mxGeometry x="990" y="1020" width="480" height="520" as="geometry"/>
                </mxCell>
                <mxCell id="338" style="edgeStyle=none;html=1;exitX=0.5;exitY=1;exitDx=0;exitDy=0;entryX=0.5;entryY=0;entryDx=0;entryDy=0;" edge="1" parent="337" source="339">
                    <mxGeometry relative="1" as="geometry">
                        <mxPoint x="232.5" y="100" as="targetPoint"/>
                    </mxGeometry>
                </mxCell>
                <mxCell id="339" value="Start" style="ellipse;whiteSpace=wrap;html=1;" vertex="1" parent="337">
                    <mxGeometry x="192.5" y="40" width="80" height="40" as="geometry"/>
                </mxCell>
                <mxCell id="340" style="edgeStyle=none;html=1;exitX=0.5;exitY=1;exitDx=0;exitDy=0;" edge="1" parent="337" source="341" target="346">
                    <mxGeometry relative="1" as="geometry"/>
                </mxCell>
                <mxCell id="341" value="Is Voltage or&amp;nbsp;&lt;div&gt;Curent or&amp;nbsp;&lt;/div&gt;&lt;div&gt;Power or&amp;nbsp;&lt;/div&gt;&lt;div&gt;Energy or&amp;nbsp;&lt;/div&gt;&lt;div&gt;Frequency or&amp;nbsp;&lt;/div&gt;&lt;div&gt;Power Factor&amp;nbsp;&lt;/div&gt;&lt;div&gt;is nan ?&lt;/div&gt;" style="rhombus;whiteSpace=wrap;html=1;" vertex="1" parent="337">
                    <mxGeometry x="138.75" y="100" width="187.5" height="170" as="geometry"/>
                </mxCell>
                <mxCell id="342" style="edgeStyle=none;html=1;exitX=0;exitY=0;exitDx=85;exitDy=60;exitPerimeter=0;" edge="1" parent="337" source="343">
                    <mxGeometry relative="1" as="geometry">
                        <mxPoint x="230" y="90" as="targetPoint"/>
                        <Array as="points">
                            <mxPoint x="105" y="380"/>
                            <mxPoint x="10" y="380"/>
                            <mxPoint x="10" y="90"/>
                        </Array>
                    </mxGeometry>
                </mxCell>
                <mxCell id="343" value="Voltage is nan! on LCD" style="shape=display;whiteSpace=wrap;html=1;" vertex="1" parent="337">
                    <mxGeometry x="20" y="270" width="160" height="60" as="geometry"/>
                </mxCell>
                <mxCell id="344" style="edgeStyle=none;html=1;exitX=0;exitY=0.5;exitDx=0;exitDy=0;entryX=0.62;entryY=-0.011;entryDx=0;entryDy=0;entryPerimeter=0;" edge="1" parent="337" source="341" target="343">
                    <mxGeometry relative="1" as="geometry">
                        <Array as="points">
                            <mxPoint x="119" y="185"/>
                        </Array>
                    </mxGeometry>
                </mxCell>
                <mxCell id="345" style="edgeStyle=none;html=1;exitX=0;exitY=0;exitDx=77.1875;exitDy=60;exitPerimeter=0;entryX=0.5;entryY=0;entryDx=0;entryDy=0;" edge="1" parent="337" source="346" target="347">
                    <mxGeometry relative="1" as="geometry"/>
                </mxCell>
                <mxCell id="346" value="Display Voltage etc.&amp;nbsp;&lt;div&gt;on LCD&lt;/div&gt;" style="shape=display;whiteSpace=wrap;html=1;" vertex="1" parent="337">
                    <mxGeometry x="158.75" y="350" width="147.5" height="60" as="geometry"/>
                </mxCell>
                <mxCell id="347" value="End" style="ellipse;whiteSpace=wrap;html=1;" vertex="1" parent="337">
                    <mxGeometry x="192.5" y="450" width="80" height="40" as="geometry"/>
                </mxCell>
                <mxCell id="348" value="Yes" style="text;html=1;align=center;verticalAlign=middle;resizable=0;points=[];autosize=1;strokeColor=none;fillColor=none;" vertex="1" parent="337">
                    <mxGeometry x="80" y="220" width="40" height="30" as="geometry"/>
                </mxCell>
                <mxCell id="349" value="No" style="text;html=1;align=center;verticalAlign=middle;resizable=0;points=[];autosize=1;strokeColor=none;fillColor=none;" vertex="1" parent="337">
                    <mxGeometry x="192.5" y="280" width="40" height="30" as="geometry"/>
                </mxCell>
            </root>
        </mxGraphModel>
    </diagram>
</mxfile>